<svg width="722" height="113" viewBox="0 0 722 113" fill="none" xmlns="http://www.w3.org/2000/svg">
<path d="M56.1265 93.5597V112.265C40.6343 112.265 27.4173 106.777 16.4527 95.8121C5.48804 84.8475 0 71.619 0 56.1382C0 40.6574 5.48804 27.429 16.4527 16.4644C27.4173 5.49976 40.6457 0.0117188 56.1265 0.0117188V18.7168C45.7793 18.7168 36.9641 22.364 29.6582 29.6699C22.3523 36.9759 18.705 45.791 18.705 56.1382C18.705 66.4854 22.3523 75.3006 29.6582 82.6065C36.9641 89.9125 45.7793 93.5597 56.1265 93.5597Z" fill="#903A24"/>
<path d="M121.599 112.261C106.107 112.261 92.8899 106.773 81.9253 95.8082C70.9607 84.8436 65.4727 71.6151 65.4727 56.1343C65.4727 40.6535 70.9607 27.4251 81.9253 16.4605C92.8899 5.49586 106.118 0.0078125 121.599 0.0078125C137.08 0.0078125 150.308 5.49586 161.273 16.4605C172.238 27.4251 177.726 40.6535 177.726 56.1343C177.726 71.6151 172.238 84.8436 161.273 95.8082C150.308 106.773 137.08 112.261 121.599 112.261ZM121.599 93.5558C131.935 93.5558 140.762 89.9086 148.067 82.6026C155.373 75.2967 159.021 66.4815 159.021 56.1343C159.021 45.7871 155.373 36.972 148.067 29.666C140.762 22.3601 131.946 18.7129 121.599 18.7129C111.252 18.7129 102.437 22.3601 95.1309 29.666C87.8249 36.972 84.1777 45.7871 84.1777 56.1343C84.1777 66.4815 87.8249 75.2967 95.1309 82.6026C102.437 89.9086 111.252 93.5558 121.599 93.5558Z" fill="#903A24"/>
<path d="M534.284 0.0228542V18.7279H440.748V46.7854H515.579V65.4904H440.748V93.548H534.284V112.253H422.031V0H534.284V0.0228542Z" fill="#903A24"/>
<path d="M599.779 93.5558V112.261C584.298 112.261 571.07 106.773 560.105 95.8082C549.141 84.8436 543.664 71.6151 543.664 56.1343C543.664 40.6535 549.141 27.4251 560.105 16.4605C571.07 5.49586 584.298 0.0078125 599.779 0.0078125V18.7129C589.432 18.7129 580.617 22.3601 573.311 29.666C566.005 36.972 562.358 45.7871 562.358 56.1343C562.358 66.4815 566.005 75.2967 573.311 82.6026C580.617 89.9086 589.432 93.5558 599.779 93.5558Z" fill="#903A24"/>
<path d="M721.39 0.0214844V18.7265H674.616V112.263H655.911V18.7265H609.137V0.0214844H721.39Z" fill="#903A24"/>
<path d="M408.861 58.7477C408.861 66.0993 408.312 72.5249 407.226 78.0701C406.14 83.6153 404.608 88.4059 402.641 92.419C400.674 96.455 398.308 99.7821 395.575 102.435C392.831 105.11 389.824 107.202 386.611 108.769C383.376 110.335 379.923 111.421 376.321 112.05C372.697 112.679 369.061 112.988 365.46 112.988H364.888C361.115 112.953 357.468 112.393 353.946 111.307C350.448 110.244 347.349 108.414 344.662 105.853C341.976 103.292 339.815 99.9079 338.237 95.6661C336.636 91.4357 335.847 86.1307 335.847 79.7737C335.847 77.3269 335.962 74.743 336.202 72.0219C336.442 69.3007 336.842 66.3737 337.436 63.2524C338.363 58.1531 339.117 53.2139 339.757 48.4233C340.398 43.6327 340.718 39.1737 340.718 35.0348C340.718 32.3251 340.558 29.8098 340.203 27.4888C339.849 25.1449 339.277 23.0869 338.488 21.3148C337.677 19.5426 336.648 18.0563 335.378 16.8443C334.086 15.6438 332.486 14.7978 330.576 14.3633C329.136 14.0317 327.741 13.8716 326.346 13.8716C325.98 13.8716 325.26 13.9059 324.197 13.9631C323.145 14.0317 321.807 14.5348 320.161 15.4952C318.537 16.4327 317.016 17.8733 315.599 19.7827C314.158 21.7149 312.878 24.276 311.768 27.4659C310.648 30.6673 309.722 34.5775 309.002 39.1966C308.693 41.2203 308.007 49.3266 307.824 52.2307V52.3221C307.733 53.4769 307.664 54.8603 307.641 56.5982C307.618 57.1699 307.607 57.753 307.607 58.4047L307.069 71.9304C306.589 82.7007 305.091 88.4059 303.136 92.419C301.993 94.7743 300.701 96.8895 299.283 98.776C298.266 100.125 297.202 101.337 296.059 102.446C293.315 105.121 290.308 107.214 287.072 108.78C283.814 110.347 280.384 111.433 276.759 112.062C273.146 112.69 269.522 112.999 265.898 112.999H265.349C261.576 112.965 257.929 112.405 254.407 111.318C250.886 110.255 247.799 108.426 245.112 105.865C242.425 103.304 240.264 99.9193 238.663 95.6775C237.074 91.4472 236.274 86.1421 236.274 79.7851C236.274 77.3384 236.4 74.7544 236.64 72.0333C236.88 69.3121 237.28 66.3852 237.874 63.2639C238.778 58.1646 239.555 53.2254 240.195 48.4348C240.836 43.6442 241.156 39.1852 241.156 35.0463C241.156 32.3366 240.996 29.8212 240.641 27.5002C240.287 25.1564 239.715 23.0984 238.915 21.3262C238.126 19.554 237.097 18.0677 235.805 16.8558C234.536 15.6553 232.935 14.8092 231.014 14.3747C229.574 14.0431 228.156 13.8831 226.784 13.8831C226.418 13.8831 225.698 13.9174 224.635 13.9746C223.571 14.0432 222.222 14.5462 220.599 15.5066C218.975 16.4442 217.454 17.8848 216.014 19.7941C214.573 21.7264 213.293 24.2875 212.161 27.4774C211.052 30.6787 210.137 34.5889 209.417 39.208C208.696 43.85 208.239 49.338 208.022 55.695C207.965 56.5067 207.953 57.3299 207.953 58.1417C207.953 62.1777 208.319 66.2594 209.062 70.3526C209.817 74.48 210.846 78.436 212.138 82.2662C213.441 86.0963 214.882 89.5721 216.471 92.7048C218.038 95.8376 219.512 98.4901 220.896 100.697C222.279 102.892 223.434 104.596 224.372 105.83C225.298 107.042 225.789 107.671 225.847 107.705L208.033 112.885C207.873 112.713 207.279 111.913 206.227 110.415C205.198 108.94 203.963 106.894 202.522 104.333C201.082 101.76 199.538 98.6959 197.881 95.163C196.246 91.6301 194.748 87.7085 193.41 83.3752C192.084 79.0648 191.055 74.6287 190.3 70.0782C189.568 65.5277 189.18 61.0001 189.18 56.5067V53.9342C189.454 46.5368 190.174 40.0655 191.329 34.5432C192.507 29.0209 194.05 24.2646 195.971 20.3086C197.892 16.3527 200.076 13.0942 202.568 10.5331C205.038 7.97202 207.702 5.97119 210.56 4.47341C213.396 2.98707 216.357 1.94663 219.455 1.36353C222.554 0.79186 225.641 0.494581 228.716 0.494581C233.027 0.494581 236.823 0.894734 240.058 1.72937C243.317 2.57544 246.095 3.7531 248.45 5.28517C250.794 6.81725 252.726 8.63515 254.27 10.7503C255.813 12.8655 257.048 15.2208 257.952 17.8047C258.855 20.3658 259.495 23.1212 259.872 26.0939C260.238 29.0437 260.421 32.0964 260.421 35.2406C260.421 39.0937 260.215 43.0268 259.827 47.0856C259.426 51.1216 258.981 55.1119 258.5 59.0564C258.02 63.0009 257.574 66.8311 257.174 70.5241C256.785 74.2285 256.58 77.67 256.58 80.8599C256.58 83.0094 256.694 85.0216 256.934 86.8853C257.174 88.7489 257.574 90.4182 258.146 91.8931C258.695 93.368 259.472 94.66 260.444 95.7233C261.439 96.8094 262.651 97.6212 264.091 98.17C265.726 98.8331 267.11 99.199 268.23 99.3248C269.351 99.4391 270.128 99.4848 270.551 99.4848C271.992 99.4848 273.535 99.1762 275.17 98.5473C276.828 97.9414 278.486 96.7637 280.121 95.0716C281.779 93.3566 283.254 90.9327 284.523 87.7999C285.792 84.6672 286.821 80.7226 287.598 75.9778C288.204 72.2619 289.748 40.0655 290.937 34.5432C292.092 29.0209 293.647 24.2646 295.556 20.3086C296.368 18.6279 297.237 17.0844 298.151 15.6667C298.174 15.6438 298.174 15.6324 298.186 15.6095C299.398 13.6773 300.747 11.9851 302.142 10.5216C304.623 7.96057 307.275 5.95974 310.134 4.46197C312.992 2.96419 315.953 1.93519 319.006 1.35208C322.104 0.780416 325.191 0.483136 328.29 0.483136C332.6 0.483136 336.373 0.883324 339.62 1.71796C342.879 2.56403 345.68 3.74165 348.012 5.27373C350.356 6.8058 352.3 8.62371 353.809 10.7389C355.353 12.8541 356.587 15.2094 357.491 17.7933C358.394 20.3544 359.034 23.1098 359.411 26.0825C359.777 29.0323 359.96 32.085 359.96 35.2292C359.96 39.0823 359.777 43.0153 359.366 47.0742C358.965 51.1102 358.52 55.1004 358.039 59.045C357.559 62.9895 357.113 66.8197 356.736 70.5126C356.336 74.2171 356.13 77.6585 356.13 80.8484C356.13 82.9979 356.256 85.0102 356.496 86.8738C356.736 88.7375 357.125 90.4067 357.696 91.8816C358.245 93.3566 359.023 94.6485 360.017 95.7118C360.989 96.798 362.213 97.6098 363.642 98.1586C365.3 98.8217 366.683 99.1876 367.781 99.3133C368.901 99.4277 369.679 99.4734 370.102 99.4734C371.542 99.4734 373.086 99.1647 374.744 98.5359C376.379 97.9299 378.036 96.7523 379.694 95.0601C381.329 93.3451 382.804 90.9213 384.073 87.7885C385.365 84.6558 386.371 80.7112 387.149 75.9664C387.926 71.1987 388.304 65.4362 388.304 58.6562C388.304 53.7399 387.858 49.0293 386.943 44.4903C386.04 39.9741 384.931 35.778 383.593 31.8564C382.267 27.9576 380.815 24.4018 379.248 21.189C377.682 17.9991 376.23 15.2551 374.881 12.9798C373.555 10.6931 372.434 8.93242 371.496 7.67475C370.57 6.41707 370.102 5.7768 370.102 5.7425L388.075 0.277344C388.224 0.483145 388.852 1.29492 389.939 2.74696C391.025 4.199 392.351 6.18841 393.895 8.71519C395.438 11.242 397.084 14.2604 398.845 17.759C400.595 21.2576 402.218 25.1564 403.704 29.421C405.191 33.6971 406.426 38.2934 407.42 43.2326C408.392 48.1832 408.895 53.3626 408.895 58.7591L408.861 58.7477Z" fill="#903A24"/>
</svg>
